<svg width="1400" height="900" viewBox="0 0 1400 900" xmlns="http://www.w3.org/2000/svg" role="img" aria-label="After detailing car condition">
  <defs>
    <linearGradient id="bg" x1="0" y1="0" x2="1" y2="1">
      <stop offset="0%" stop-color="#06080c"/>
      <stop offset="100%" stop-color="#0d1723"/>
    </linearGradient>
    <linearGradient id="car" x1="0" y1="0" x2="1" y2="0">
      <stop offset="0%" stop-color="#0e2938"/>
      <stop offset="50%" stop-color="#1d4862"/>
      <stop offset="100%" stop-color="#0d2433"/>
    </linearGradient>
    <radialGradient id="shine" cx="0.3" cy="0.2" r="0.7">
      <stop offset="0%" stop-color="#89ecff" stop-opacity="0.8"/>
      <stop offset="100%" stop-color="#89ecff" stop-opacity="0"/>
    </radialGradient>
  </defs>
  <rect width="1400" height="900" fill="url(#bg)"/>
  <circle cx="1080" cy="180" r="210" fill="url(#shine)" opacity="0.35"/>
  <ellipse cx="700" cy="760" rx="420" ry="70" fill="#001119" opacity="0.5"/>
  <path d="M290 590C330 470 420 420 560 400H820C955 420 1040 470 1110 590Z" fill="url(#car)"/>
  <rect x="420" y="435" width="560" height="130" rx="65" fill="#12384d"/>
  <rect x="500" y="455" width="400" height="75" rx="38" fill="#71e8ff" opacity="0.2"/>
  <rect x="470" y="490" width="480" height="12" rx="6" fill="#b7f6ff" opacity="0.6"/>
  <circle cx="450" cy="620" r="70" fill="#0e1d27"/>
  <circle cx="950" cy="620" r="70" fill="#0e1d27"/>
  <circle cx="450" cy="620" r="28" fill="#89ecff" opacity="0.2"/>
  <circle cx="950" cy="620" r="28" fill="#89ecff" opacity="0.2"/>
  <text x="80" y="120" fill="#8defff" font-size="60" font-family="Arial" font-weight="700">AFTER</text>
</svg>
